<mxfile host="Electron" agent="Mozilla/5.0 (Windows NT 10.0; Win64; x64) AppleWebKit/537.36 (KHTML, like Gecko) draw.io/26.0.15 Chrome/132.0.6834.196 Electron/34.2.0 Safari/537.36" version="26.0.15">
  <diagram name="Page-1" id="FRwzLPTRjESKL2L0TiH9">
    <mxGraphModel dx="1764" dy="1242" grid="0" gridSize="10" guides="1" tooltips="1" connect="1" arrows="1" fold="1" page="1" pageScale="1" pageWidth="1700" pageHeight="1100" math="0" shadow="0">
      <root>
        <mxCell id="0" />
        <mxCell id="1" parent="0" />
        <mxCell id="iwK03B1mKn0zTGOzYxbJ-1" value="" style="whiteSpace=wrap;html=1;aspect=fixed;fillColor=#dae8fc;strokeColor=#6c8ebf;" parent="1" vertex="1">
          <mxGeometry x="551" y="247" width="290" height="290" as="geometry" />
        </mxCell>
        <mxCell id="iwK03B1mKn0zTGOzYxbJ-2" value="" style="endArrow=classic;html=1;rounded=0;entryX=0.002;entryY=0.22;entryDx=0;entryDy=0;entryPerimeter=0;" parent="1" target="iwK03B1mKn0zTGOzYxbJ-1" edge="1">
          <mxGeometry width="50" height="50" relative="1" as="geometry">
            <mxPoint x="448" y="311" as="sourcePoint" />
            <mxPoint x="478" y="298" as="targetPoint" />
          </mxGeometry>
        </mxCell>
        <mxCell id="iwK03B1mKn0zTGOzYxbJ-3" value="" style="endArrow=classic;html=1;rounded=0;entryX=0.002;entryY=0.22;entryDx=0;entryDy=0;entryPerimeter=0;" parent="1" edge="1">
          <mxGeometry width="50" height="50" relative="1" as="geometry">
            <mxPoint x="447" y="349" as="sourcePoint" />
            <mxPoint x="551" y="349" as="targetPoint" />
          </mxGeometry>
        </mxCell>
        <mxCell id="iwK03B1mKn0zTGOzYxbJ-4" value="" style="endArrow=classic;html=1;rounded=0;entryX=0.002;entryY=0.22;entryDx=0;entryDy=0;entryPerimeter=0;" parent="1" edge="1">
          <mxGeometry width="50" height="50" relative="1" as="geometry">
            <mxPoint x="447" y="387" as="sourcePoint" />
            <mxPoint x="551" y="387" as="targetPoint" />
          </mxGeometry>
        </mxCell>
        <mxCell id="iwK03B1mKn0zTGOzYxbJ-5" value="" style="endArrow=classic;html=1;rounded=0;entryX=0.002;entryY=0.22;entryDx=0;entryDy=0;entryPerimeter=0;" parent="1" edge="1">
          <mxGeometry width="50" height="50" relative="1" as="geometry">
            <mxPoint x="447" y="431" as="sourcePoint" />
            <mxPoint x="551" y="431" as="targetPoint" />
          </mxGeometry>
        </mxCell>
        <mxCell id="iwK03B1mKn0zTGOzYxbJ-6" value="" style="endArrow=classic;html=1;rounded=0;entryX=0.002;entryY=0.22;entryDx=0;entryDy=0;entryPerimeter=0;" parent="1" edge="1">
          <mxGeometry width="50" height="50" relative="1" as="geometry">
            <mxPoint x="447" y="474" as="sourcePoint" />
            <mxPoint x="551" y="474" as="targetPoint" />
          </mxGeometry>
        </mxCell>
        <mxCell id="iwK03B1mKn0zTGOzYxbJ-7" value="" style="endArrow=classic;html=1;rounded=0;entryX=0.002;entryY=0.22;entryDx=0;entryDy=0;entryPerimeter=0;" parent="1" edge="1">
          <mxGeometry width="50" height="50" relative="1" as="geometry">
            <mxPoint x="447" y="512" as="sourcePoint" />
            <mxPoint x="551" y="512" as="targetPoint" />
          </mxGeometry>
        </mxCell>
        <mxCell id="iwK03B1mKn0zTGOzYxbJ-8" value="" style="endArrow=classic;html=1;rounded=0;entryX=0.002;entryY=0.22;entryDx=0;entryDy=0;entryPerimeter=0;" parent="1" edge="1">
          <mxGeometry width="50" height="50" relative="1" as="geometry">
            <mxPoint x="841" y="332" as="sourcePoint" />
            <mxPoint x="945" y="332" as="targetPoint" />
          </mxGeometry>
        </mxCell>
        <mxCell id="iwK03B1mKn0zTGOzYxbJ-9" value="" style="endArrow=classic;html=1;rounded=0;entryX=0.002;entryY=0.22;entryDx=0;entryDy=0;entryPerimeter=0;" parent="1" edge="1">
          <mxGeometry width="50" height="50" relative="1" as="geometry">
            <mxPoint x="841" y="384" as="sourcePoint" />
            <mxPoint x="945" y="384" as="targetPoint" />
          </mxGeometry>
        </mxCell>
        <mxCell id="iwK03B1mKn0zTGOzYxbJ-10" value="" style="endArrow=classic;html=1;rounded=0;entryX=0.002;entryY=0.22;entryDx=0;entryDy=0;entryPerimeter=0;" parent="1" edge="1">
          <mxGeometry width="50" height="50" relative="1" as="geometry">
            <mxPoint x="774.5" y="643" as="sourcePoint" />
            <mxPoint x="878.5" y="643" as="targetPoint" />
          </mxGeometry>
        </mxCell>
        <mxCell id="iwK03B1mKn0zTGOzYxbJ-11" value="&lt;font style=&quot;font-size: 22px;&quot;&gt;rst_n&lt;/font&gt;" style="text;html=1;align=center;verticalAlign=middle;resizable=0;points=[];autosize=1;strokeColor=none;fillColor=none;" parent="1" vertex="1">
          <mxGeometry x="378" y="291" width="67" height="38" as="geometry" />
        </mxCell>
        <mxCell id="iwK03B1mKn0zTGOzYxbJ-12" value="&lt;font style=&quot;font-size: 22px;&quot;&gt;wr_clk&lt;/font&gt;" style="text;html=1;align=center;verticalAlign=middle;resizable=0;points=[];autosize=1;strokeColor=none;fillColor=none;" parent="1" vertex="1">
          <mxGeometry x="365" y="329" width="80" height="38" as="geometry" />
        </mxCell>
        <mxCell id="iwK03B1mKn0zTGOzYxbJ-13" value="&lt;font style=&quot;font-size: 22px;&quot;&gt;wr_en&lt;/font&gt;&lt;span style=&quot;color: rgba(0, 0, 0, 0); font-family: monospace; font-size: 0px; text-align: start;&quot;&gt;%3CmxGraphModel%3E%3Croot%3E%3CmxCell%20id%3D%220%22%2F%3E%3CmxCell%20id%3D%221%22%20parent%3D%220%22%2F%3E%3CmxCell%20id%3D%222%22%20value%3D%22%26lt%3Bfont%20style%3D%26quot%3Bfont-size%3A%2022px%3B%26quot%3B%26gt%3Bwr_clk%26lt%3B%2Ffont%26gt%3B%22%20style%3D%22text%3Bhtml%3D1%3Balign%3Dcenter%3BverticalAlign%3Dmiddle%3Bresizable%3D0%3Bpoints%3D%5B%5D%3Bautosize%3D1%3BstrokeColor%3Dnone%3BfillColor%3Dnone%3B%22%20vertex%3D%221%22%20parent%3D%221%22%3E%3CmxGeometry%20x%3D%22523%22%20y%3D%22288%22%20width%3D%2280%22%20height%3D%2238%22%20as%3D%22geometry%22%2F%3E%3C%2FmxCell%3E%3C%2Froot%3E%3C%2FmxGraphModel%3E&lt;/span&gt;" style="text;html=1;align=center;verticalAlign=middle;resizable=0;points=[];autosize=1;strokeColor=none;fillColor=none;" parent="1" vertex="1">
          <mxGeometry x="366" y="367" width="78" height="38" as="geometry" />
        </mxCell>
        <mxCell id="iwK03B1mKn0zTGOzYxbJ-14" value="&lt;font style=&quot;font-size: 22px;&quot;&gt;wr_data&lt;/font&gt;&lt;span style=&quot;color: rgba(0, 0, 0, 0); font-family: monospace; font-size: 0px; text-align: start;&quot;&gt;%3CmxGraphModel%3E%3Croot%3E%3CmxCell%20id%3D%220%22%2F%3E%3CmxCell%20id%3D%221%22%20parent%3D%220%22%2F%3E%3CmxCell%20id%3D%222%22%20value%3D%22%26lt%3Bfont%20style%3D%26quot%3Bfont-size%3A%2022px%3B%26quot%3B%26gt%3Bwr_clk%26lt%3B%2Ffont%26gt%3B%22%20style%3D%22text%3Bhtml%3D1%3Balign%3Dcenter%3BverticalAlign%3Dmiddle%3Bresizable%3D0%3Bpoints%3D%5B%5D%3Bautosize%3D1%3BstrokeColor%3Dnone%3BfillColor%3Dnone%3B%22%20vertex%3D%221%22%20parent%3D%221%22%3E%3CmxGeometry%20x%3D%22523%22%20y%3D%22288%22%20width%3D%2280%22%20height%3D%2238%22%20as%3D%22geometry%22%2F%3E%3C%2FmxCell%3E%3C%2Froot%3E%3C%2FmxGraphModel%3&lt;/span&gt;" style="text;html=1;align=center;verticalAlign=middle;resizable=0;points=[];autosize=1;strokeColor=none;fillColor=none;" parent="1" vertex="1">
          <mxGeometry x="349" y="410" width="96" height="38" as="geometry" />
        </mxCell>
        <mxCell id="iwK03B1mKn0zTGOzYxbJ-15" value="&lt;span style=&quot;font-size: 22px;&quot;&gt;full&lt;/span&gt;" style="text;html=1;align=center;verticalAlign=middle;resizable=0;points=[];autosize=1;strokeColor=none;fillColor=none;" parent="1" vertex="1">
          <mxGeometry x="947" y="311" width="46" height="38" as="geometry" />
        </mxCell>
        <mxCell id="iwK03B1mKn0zTGOzYxbJ-16" value="&lt;font style=&quot;font-size: 22px;&quot;&gt;rd_clk&lt;/font&gt;" style="text;html=1;align=center;verticalAlign=middle;resizable=0;points=[];autosize=1;strokeColor=none;fillColor=none;" parent="1" vertex="1">
          <mxGeometry x="368" y="458" width="77" height="38" as="geometry" />
        </mxCell>
        <mxCell id="iwK03B1mKn0zTGOzYxbJ-17" value="&lt;font style=&quot;font-size: 22px;&quot;&gt;rd_en&lt;/font&gt;" style="text;html=1;align=center;verticalAlign=middle;resizable=0;points=[];autosize=1;strokeColor=none;fillColor=none;" parent="1" vertex="1">
          <mxGeometry x="375" y="494" width="74" height="38" as="geometry" />
        </mxCell>
        <mxCell id="iwK03B1mKn0zTGOzYxbJ-18" value="&lt;font style=&quot;font-size: 22px;&quot;&gt;rd_data&lt;/font&gt;" style="text;html=1;align=center;verticalAlign=middle;resizable=0;points=[];autosize=1;strokeColor=none;fillColor=none;" parent="1" vertex="1">
          <mxGeometry x="947" y="364" width="93" height="38" as="geometry" />
        </mxCell>
        <mxCell id="iwK03B1mKn0zTGOzYxbJ-19" value="&lt;font style=&quot;font-size: 22px;&quot;&gt;empty&lt;/font&gt;" style="text;html=1;align=center;verticalAlign=middle;resizable=0;points=[];autosize=1;strokeColor=none;fillColor=none;" parent="1" vertex="1">
          <mxGeometry x="947" y="429" width="78" height="38" as="geometry" />
        </mxCell>
        <mxCell id="iwK03B1mKn0zTGOzYxbJ-20" value="" style="endArrow=none;html=1;rounded=0;" parent="1" edge="1">
          <mxGeometry width="50" height="50" relative="1" as="geometry">
            <mxPoint x="484" y="441" as="sourcePoint" />
            <mxPoint x="508" y="422" as="targetPoint" />
          </mxGeometry>
        </mxCell>
        <mxCell id="iwK03B1mKn0zTGOzYxbJ-21" value="" style="endArrow=none;html=1;rounded=0;" parent="1" edge="1">
          <mxGeometry width="50" height="50" relative="1" as="geometry">
            <mxPoint x="874" y="392.5" as="sourcePoint" />
            <mxPoint x="898" y="373.5" as="targetPoint" />
          </mxGeometry>
        </mxCell>
        <mxCell id="iwK03B1mKn0zTGOzYxbJ-22" value="&lt;font style=&quot;font-size: 18px;&quot;&gt;16&lt;/font&gt;" style="text;html=1;align=center;verticalAlign=middle;resizable=0;points=[];autosize=1;strokeColor=none;fillColor=none;" parent="1" vertex="1">
          <mxGeometry x="867" y="349" width="38" height="34" as="geometry" />
        </mxCell>
        <mxCell id="iwK03B1mKn0zTGOzYxbJ-23" value="&lt;font style=&quot;font-size: 18px;&quot;&gt;8&lt;/font&gt;" style="text;html=1;align=center;verticalAlign=middle;resizable=0;points=[];autosize=1;strokeColor=none;fillColor=none;" parent="1" vertex="1">
          <mxGeometry x="481" y="398" width="28" height="34" as="geometry" />
        </mxCell>
        <mxCell id="iwK03B1mKn0zTGOzYxbJ-24" value="&lt;font style=&quot;font-size: 26px;&quot;&gt;&lt;b&gt;ASyncFIFO&lt;/b&gt;&lt;/font&gt;" style="text;html=1;align=center;verticalAlign=middle;resizable=0;points=[];autosize=1;strokeColor=none;fillColor=none;" parent="1" vertex="1">
          <mxGeometry x="623" y="367" width="158" height="43" as="geometry" />
        </mxCell>
        <mxCell id="iwK03B1mKn0zTGOzYxbJ-26" value="" style="whiteSpace=wrap;html=1;aspect=fixed;fillColor=#dae8fc;strokeColor=#6c8ebf;" parent="1" vertex="1">
          <mxGeometry x="617.5" y="604" width="157" height="157" as="geometry" />
        </mxCell>
        <mxCell id="iwK03B1mKn0zTGOzYxbJ-27" value="" style="endArrow=classic;html=1;rounded=0;entryX=0.002;entryY=0.22;entryDx=0;entryDy=0;entryPerimeter=0;" parent="1" edge="1">
          <mxGeometry width="50" height="50" relative="1" as="geometry">
            <mxPoint x="513.5" y="679" as="sourcePoint" />
            <mxPoint x="617.5" y="679" as="targetPoint" />
          </mxGeometry>
        </mxCell>
        <mxCell id="iwK03B1mKn0zTGOzYxbJ-28" value="&lt;font style=&quot;font-size: 22px;&quot;&gt;binary&lt;/font&gt;&lt;span style=&quot;color: rgba(0, 0, 0, 0); font-family: monospace; font-size: 0px; text-align: start;&quot;&gt;%3CmxGraphModel%3E%3Croot%3E%3CmxCell%20id%3D%220%22%2F%3E%3CmxCell%20id%3D%221%22%20parent%3D%220%22%2F%3E%3CmxCell%20id%3D%222%22%20value%3D%22%26lt%3Bfont%20style%3D%26quot%3Bfont-size%3A%2022px%3B%26quot%3B%26gt%3Brd_en%26lt%3B%2Ffont%26gt%3B%22%20style%3D%22text%3Bhtml%3D1%3Balign%3Dcenter%3BverticalAlign%3Dmiddle%3Bresizable%3D0%3Bpoints%3D%5B%5D%3Bautosize%3D1%3BstrokeColor%3Dnone%3BfillColor%3Dnone%3B%22%20vertex%3D%221%22%20parent%3D%221%22%3E%3CmxGeometry%20x%3D%22533%22%20y%3D%22453%22%20width%3D%2274%22%20height%3D%2238%22%20as%3D%22geometry%22%2F%3E%3C%2FmxCell%3E%3C%2Froot%3E%3C%2FmxGraphModel%3E&lt;/span&gt;" style="text;html=1;align=center;verticalAlign=middle;resizable=0;points=[];autosize=1;strokeColor=none;fillColor=none;" parent="1" vertex="1">
          <mxGeometry x="519" y="686" width="78" height="38" as="geometry" />
        </mxCell>
        <mxCell id="iwK03B1mKn0zTGOzYxbJ-29" value="&lt;span style=&quot;font-size: 22px;&quot;&gt;grey&lt;/span&gt;" style="text;html=1;align=center;verticalAlign=middle;resizable=0;points=[];autosize=1;strokeColor=none;fillColor=none;" parent="1" vertex="1">
          <mxGeometry x="800" y="657.5" width="61" height="38" as="geometry" />
        </mxCell>
        <mxCell id="iwK03B1mKn0zTGOzYxbJ-30" value="&lt;font style=&quot;font-size: 26px;&quot;&gt;&lt;b&gt;B2G&lt;/b&gt;&lt;/font&gt;" style="text;html=1;align=center;verticalAlign=middle;resizable=0;points=[];autosize=1;strokeColor=none;fillColor=none;" parent="1" vertex="1">
          <mxGeometry x="660.5" y="657.5" width="71" height="43" as="geometry" />
        </mxCell>
        <mxCell id="iwK03B1mKn0zTGOzYxbJ-37" value="" style="endArrow=classic;html=1;rounded=0;entryX=0.002;entryY=0.22;entryDx=0;entryDy=0;entryPerimeter=0;" parent="1" edge="1">
          <mxGeometry width="50" height="50" relative="1" as="geometry">
            <mxPoint x="841" y="453" as="sourcePoint" />
            <mxPoint x="945" y="453" as="targetPoint" />
          </mxGeometry>
        </mxCell>
        <mxCell id="iwK03B1mKn0zTGOzYxbJ-38" value="" style="endArrow=classic;html=1;rounded=0;exitX=0.086;exitY=0.99;exitDx=0;exitDy=0;exitPerimeter=0;" parent="1" edge="1">
          <mxGeometry width="50" height="50" relative="1" as="geometry">
            <mxPoint x="573.94" y="537" as="sourcePoint" />
            <mxPoint x="516" y="680" as="targetPoint" />
            <Array as="points">
              <mxPoint x="574" y="605" />
              <mxPoint x="516" y="605" />
            </Array>
          </mxGeometry>
        </mxCell>
        <mxCell id="iwK03B1mKn0zTGOzYxbJ-40" value="&lt;span style=&quot;font-size: 22px;&quot;&gt;wr_ptr&lt;/span&gt;" style="text;html=1;align=center;verticalAlign=middle;resizable=0;points=[];autosize=1;strokeColor=none;fillColor=none;" parent="1" vertex="1">
          <mxGeometry x="490" y="566" width="79" height="38" as="geometry" />
        </mxCell>
        <mxCell id="iwK03B1mKn0zTGOzYxbJ-41" value="" style="endArrow=classic;html=1;rounded=0;" parent="1" edge="1">
          <mxGeometry width="50" height="50" relative="1" as="geometry">
            <mxPoint x="875" y="643" as="sourcePoint" />
            <mxPoint x="819.0000000000002" y="537" as="targetPoint" />
            <Array as="points">
              <mxPoint x="874" y="584" />
              <mxPoint x="819" y="584" />
            </Array>
          </mxGeometry>
        </mxCell>
        <mxCell id="iwK03B1mKn0zTGOzYxbJ-42" value="&lt;span style=&quot;font-size: 22px;&quot;&gt;wr_ptr_grey&lt;/span&gt;" style="text;html=1;align=center;verticalAlign=middle;resizable=0;points=[];autosize=1;strokeColor=none;fillColor=none;" parent="1" vertex="1">
          <mxGeometry x="819" y="543" width="134" height="38" as="geometry" />
        </mxCell>
        <mxCell id="Nk5SDQU8Gb5Rw379ypN_-1" value="" style="whiteSpace=wrap;html=1;aspect=fixed;fillColor=#dae8fc;strokeColor=#6c8ebf;" vertex="1" parent="1">
          <mxGeometry x="1040" y="608" width="157" height="157" as="geometry" />
        </mxCell>
        <mxCell id="Nk5SDQU8Gb5Rw379ypN_-2" value="" style="endArrow=classic;html=1;rounded=0;entryX=0.002;entryY=0.22;entryDx=0;entryDy=0;entryPerimeter=0;" edge="1" parent="1">
          <mxGeometry width="50" height="50" relative="1" as="geometry">
            <mxPoint x="936" y="657.5" as="sourcePoint" />
            <mxPoint x="1040" y="657.5" as="targetPoint" />
          </mxGeometry>
        </mxCell>
        <mxCell id="Nk5SDQU8Gb5Rw379ypN_-3" value="" style="endArrow=classic;html=1;rounded=0;entryX=0.002;entryY=0.22;entryDx=0;entryDy=0;entryPerimeter=0;" edge="1" parent="1">
          <mxGeometry width="50" height="50" relative="1" as="geometry">
            <mxPoint x="936" y="690" as="sourcePoint" />
            <mxPoint x="1040" y="690" as="targetPoint" />
          </mxGeometry>
        </mxCell>
        <mxCell id="Nk5SDQU8Gb5Rw379ypN_-4" value="" style="endArrow=classic;html=1;rounded=0;entryX=0.002;entryY=0.22;entryDx=0;entryDy=0;entryPerimeter=0;" edge="1" parent="1">
          <mxGeometry width="50" height="50" relative="1" as="geometry">
            <mxPoint x="936" y="724" as="sourcePoint" />
            <mxPoint x="1040" y="724" as="targetPoint" />
          </mxGeometry>
        </mxCell>
        <mxCell id="Nk5SDQU8Gb5Rw379ypN_-5" value="&lt;span style=&quot;font-size: 22px;&quot;&gt;data_in&lt;/span&gt;" style="text;html=1;align=center;verticalAlign=middle;resizable=0;points=[];autosize=1;strokeColor=none;fillColor=none;" vertex="1" parent="1">
          <mxGeometry x="941" y="619.5" width="90" height="38" as="geometry" />
        </mxCell>
        <mxCell id="Nk5SDQU8Gb5Rw379ypN_-6" value="" style="endArrow=classic;html=1;rounded=0;" edge="1" parent="1">
          <mxGeometry width="50" height="50" relative="1" as="geometry">
            <mxPoint x="875" y="612" as="sourcePoint" />
            <mxPoint x="936" y="657" as="targetPoint" />
            <Array as="points">
              <mxPoint x="913" y="612" />
              <mxPoint x="914" y="657" />
            </Array>
          </mxGeometry>
        </mxCell>
        <mxCell id="Nk5SDQU8Gb5Rw379ypN_-7" value="&lt;span style=&quot;font-size: 22px;&quot;&gt;clk&lt;/span&gt;" style="text;html=1;align=center;verticalAlign=middle;resizable=0;points=[];autosize=1;strokeColor=none;fillColor=none;" vertex="1" parent="1">
          <mxGeometry x="892" y="667.5" width="45" height="38" as="geometry" />
        </mxCell>
        <mxCell id="Nk5SDQU8Gb5Rw379ypN_-8" value="&lt;span style=&quot;font-size: 22px;&quot;&gt;rst_n&lt;/span&gt;" style="text;html=1;align=center;verticalAlign=middle;resizable=0;points=[];autosize=1;strokeColor=none;fillColor=none;" vertex="1" parent="1">
          <mxGeometry x="870" y="704" width="67" height="38" as="geometry" />
        </mxCell>
        <mxCell id="Nk5SDQU8Gb5Rw379ypN_-9" value="" style="endArrow=classic;html=1;rounded=0;entryX=1.008;entryY=0.891;entryDx=0;entryDy=0;entryPerimeter=0;" edge="1" parent="1" target="iwK03B1mKn0zTGOzYxbJ-1">
          <mxGeometry width="50" height="50" relative="1" as="geometry">
            <mxPoint x="1197" y="678.33" as="sourcePoint" />
            <mxPoint x="1301" y="678.33" as="targetPoint" />
            <Array as="points">
              <mxPoint x="1256" y="678" />
              <mxPoint x="1256" y="505" />
            </Array>
          </mxGeometry>
        </mxCell>
        <mxCell id="Nk5SDQU8Gb5Rw379ypN_-10" value="&lt;span style=&quot;font-size: 22px;&quot;&gt;wr_ptr_grey_sync_rdclk&lt;/span&gt;" style="text;html=1;align=center;verticalAlign=middle;resizable=0;points=[];autosize=1;strokeColor=none;fillColor=none;" vertex="1" parent="1">
          <mxGeometry x="1002" y="507" width="250" height="38" as="geometry" />
        </mxCell>
        <mxCell id="Nk5SDQU8Gb5Rw379ypN_-11" value="&lt;span style=&quot;font-size: 22px;&quot;&gt;data_out&lt;/span&gt;" style="text;html=1;align=center;verticalAlign=middle;resizable=0;points=[];autosize=1;strokeColor=none;fillColor=none;" vertex="1" parent="1">
          <mxGeometry x="1201" y="680" width="104" height="38" as="geometry" />
        </mxCell>
        <mxCell id="Nk5SDQU8Gb5Rw379ypN_-12" value="&lt;font style=&quot;font-size: 26px;&quot;&gt;&lt;b&gt;Syncgen&lt;/b&gt;&lt;/font&gt;" style="text;html=1;align=center;verticalAlign=middle;resizable=0;points=[];autosize=1;strokeColor=none;fillColor=none;" vertex="1" parent="1">
          <mxGeometry x="1056" y="661" width="126" height="43" as="geometry" />
        </mxCell>
      </root>
    </mxGraphModel>
  </diagram>
</mxfile>
